<?xml version="1.0" encoding="UTF-8" standalone="no"?>
<!DOCTYPE svg PUBLIC "-//W3C//DTD SVG 1.1//EN" "http://www.w3.org/Graphics/SVG/1.1/DTD/svg11.dtd">
<svg width="100%" height="100%" viewBox="0 0 674 930" version="1.1" xmlns="http://www.w3.org/2000/svg" xmlns:xlink="http://www.w3.org/1999/xlink" xml:space="preserve" xmlns:serif="http://www.serif.com/" style="fill-rule:evenodd;clip-rule:evenodd;stroke-linejoin:round;stroke-miterlimit:2;">
    <g transform="matrix(1,0,0,1,-163,-35)">
        <g transform="matrix(1,0,0,1,-110,-5)">
            <path fill="currentColor" d="M947,135.859L947,874.141C947,927.047 904.047,970 851.141,970L368.859,970C315.953,970 273,927.047 273,874.141L273,135.859C273,82.953 315.953,40 368.859,40L851.141,40C904.047,40 947,82.953 947,135.859ZM887.009,640C887.009,625.098 874.91,613 860.009,613L359.991,613C345.09,613 332.991,625.098 332.991,640C332.991,654.902 345.09,667 359.991,667L860.009,667C874.91,667 887.009,654.902 887.009,640ZM887.009,744C887.009,729.098 874.91,717 860.009,717L359.991,717C345.09,717 332.991,729.098 332.991,744C332.991,758.902 345.09,771 359.991,771L860.009,771C874.91,771 887.009,758.902 887.009,744ZM582.991,848C582.991,833.098 570.893,821 555.991,821L359.991,821C345.09,821 332.991,833.098 332.991,848C332.991,862.902 345.09,875 359.991,875L555.991,875C570.893,875 582.991,862.902 582.991,848ZM785.771,464.862L882.021,190.32C888.132,172.292 883.09,161.598 866.896,158.237C863.535,157.625 859.944,157.244 856.125,157.091C852.306,156.938 848.639,157.473 845.125,158.695C841.611,159.917 838.326,161.903 835.271,164.653C832.215,167.403 829.771,171.223 827.938,176.112L760.562,375.028L693.188,176.57C691.354,170.764 688.986,166.487 686.083,163.737C683.181,160.987 680.049,159.153 676.688,158.237C673.326,157.32 669.965,157.014 666.604,157.32C663.243,157.625 660.035,158.084 656.979,158.695C651.785,159.917 647.736,161.75 644.833,164.195C641.931,166.639 639.868,169.313 638.646,172.216C637.424,175.119 636.965,178.25 637.271,181.612C637.576,184.973 638.34,188.334 639.562,191.695L734.896,463.487C738.868,472.653 742.84,478.612 746.813,481.362C750.785,484.112 755.368,485.487 760.562,485.487C770.951,485.487 779.354,478.612 785.771,464.862ZM502.062,490.07C517.951,490.07 532.236,487.931 544.917,483.653C557.597,479.375 568.368,474.257 577.229,468.299C586.09,462.341 592.965,456.23 597.854,449.966C602.743,443.702 605.493,438.737 606.104,435.07C606.715,429.875 605.799,424.834 603.354,419.945C600.91,415.056 596.174,411.237 589.146,408.487C581.812,405.125 574.326,406.195 566.688,411.695C562.715,414.75 558.743,417.73 554.771,420.632C550.799,423.535 546.368,426.209 541.479,428.653C536.59,431.098 530.938,433.16 524.521,434.841C518.104,436.521 510.618,437.514 502.062,437.82C485.562,438.125 471.049,434.994 458.521,428.424C445.993,421.855 435.528,413.07 427.125,402.07C418.722,391.07 412.382,378.466 408.104,364.257C403.826,350.049 401.688,335.459 401.688,320.487C401.688,305.514 403.597,291.077 407.417,277.174C411.236,263.271 416.889,250.973 424.375,240.278C431.861,229.584 441.181,220.952 452.333,214.382C463.486,207.813 476.243,204.528 490.604,204.528C503.438,204.528 514.208,206.438 522.917,210.257C531.625,214.077 539.188,218.049 545.604,222.174C552.021,226.299 557.826,229.737 563.021,232.487C568.215,235.237 573.562,235.389 579.062,232.945C582.424,231.723 585.326,230.042 587.771,227.903C590.215,225.764 591.896,223.931 592.812,222.403C593.424,221.181 594.264,219.195 595.333,216.445C596.403,213.695 596.632,210.334 596.021,206.362C595.41,201.778 592.507,196.355 587.312,190.091C582.118,183.827 574.938,177.869 565.771,172.216C556.604,166.563 545.757,161.827 533.229,158.007C520.701,154.188 506.951,152.278 491.979,152.278C470.896,152.278 451.264,156.098 433.083,163.737C414.903,171.375 399.167,182.375 385.875,196.737C372.583,211.098 362.042,228.667 354.25,249.445C346.458,270.223 342.41,293.903 342.104,320.487C341.799,347.07 345.618,370.827 353.562,391.757C361.507,412.688 372.66,430.487 387.021,445.153C401.382,459.82 418.417,470.973 438.125,478.612C457.833,486.25 479.146,490.07 502.062,490.07Z"/>
        </g>
    </g>
</svg>
